<svg width="35" height="35" viewBox="0 0 35 35" fill="none" xmlns="http://www.w3.org/2000/svg">
<circle cx="17.5" cy="17.5" r="17.5" fill="#3490CA"/>
<path d="M18 26C18 26 25 19.9586 25 15.375C25 13.6842 24.2625 12.0627 22.9497 10.8672C21.637 9.67165 19.8565 9 18 9C16.1435 9 14.363 9.67165 13.0503 10.8672C11.7375 12.0627 11 13.6842 11 15.375C11 19.9586 18 26 18 26ZM18 18.5625C17.0717 18.5625 16.1815 18.2267 15.5251 17.6289C14.8687 17.0311 14.5 16.2204 14.5 15.375C14.5 14.5296 14.8687 13.7189 15.5251 13.1211C16.1815 12.5233 17.0717 12.1875 18 12.1875C18.9283 12.1875 19.8185 12.5233 20.4749 13.1211C21.1313 13.7189 21.5 14.5296 21.5 15.375C21.5 16.2204 21.1313 17.0311 20.4749 17.6289C19.8185 18.2267 18.9283 18.5625 18 18.5625Z" fill="white"/>
</svg>
