<svg width="213" height="54" viewBox="0 0 213 54" fill="none" xmlns="http://www.w3.org/2000/svg">
<g clip-path="url(#clip0_19_66)">
<path d="M11 10.9375C11 9.6943 11.4939 8.50201 12.3729 7.62294C13.252 6.74386 14.4443 6.25 15.6875 6.25H43.8125C45.0557 6.25 46.248 6.74386 47.1271 7.62294C48.0061 8.50201 48.5 9.6943 48.5 10.9375V15.625H51.6875C52.3898 15.6256 53.083 15.7841 53.7159 16.0886C54.3487 16.3931 54.905 16.8359 55.3438 17.3844L59.9719 23.1656C60.6378 23.9975 61.0004 25.0313 61 26.0969V32.8125C61 34.0557 60.5061 35.248 59.6271 36.1271C58.748 37.0061 57.5557 37.5 56.3125 37.5H54.75C54.75 39.1576 54.0915 40.7473 52.9194 41.9194C51.7473 43.0915 50.1576 43.75 48.5 43.75C46.8424 43.75 45.2527 43.0915 44.0806 41.9194C42.9085 40.7473 42.25 39.1576 42.25 37.5H26.625C26.6268 38.3331 26.462 39.1581 26.1404 39.9266C25.8187 40.6951 25.3467 41.3915 24.752 41.9749C24.1574 42.5583 23.452 43.017 22.6776 43.3239C21.9031 43.6308 21.0751 43.7798 20.2422 43.7621C19.4093 43.7444 18.5883 43.5603 17.8276 43.2208C17.0669 42.8812 16.3817 42.393 15.8123 41.7848C15.243 41.1767 14.801 40.4608 14.5123 39.6794C14.2236 38.8979 14.094 38.0666 14.1312 37.2344C13.2158 36.9122 12.4229 36.3137 11.862 35.5217C11.3011 34.7296 10.9999 33.783 11 32.8125V10.9375ZM15.0438 34.2375C15.6093 33.3133 16.4055 32.5519 17.3541 32.0282C18.3028 31.5046 19.3712 31.2365 20.4547 31.2504C21.5382 31.2642 22.5995 31.5595 23.5344 32.1073C24.4693 32.6551 25.2457 33.4366 25.7875 34.375H43.0875C43.636 33.425 44.425 32.636 45.375 32.0875V10.9375C45.375 10.5231 45.2104 10.1257 44.9174 9.83265C44.6243 9.53962 44.2269 9.375 43.8125 9.375H15.6875C15.2731 9.375 14.8757 9.53962 14.5826 9.83265C14.2896 10.1257 14.125 10.5231 14.125 10.9375V32.8125C14.1248 33.1133 14.2113 33.4077 14.3743 33.6605C14.5373 33.9132 14.7697 34.1136 15.0438 34.2375ZM48.5 31.25C49.5971 31.25 50.6748 31.5388 51.6249 32.0874C52.575 32.6359 53.364 33.4249 53.9125 34.375H56.3125C56.7269 34.375 57.1243 34.2104 57.4174 33.9174C57.7104 33.6243 57.875 33.2269 57.875 32.8125V26.0938C57.8744 25.7392 57.7531 25.3953 57.5312 25.1187L52.9062 19.3375C52.7601 19.1545 52.5747 19.0067 52.3638 18.905C52.1528 18.8033 51.9217 18.7503 51.6875 18.75H48.5V31.25ZM20.375 34.375C19.5462 34.375 18.7513 34.7042 18.1653 35.2903C17.5792 35.8763 17.25 36.6712 17.25 37.5C17.25 38.3288 17.5792 39.1237 18.1653 39.7097C18.7513 40.2958 19.5462 40.625 20.375 40.625C21.2038 40.625 21.9987 40.2958 22.5847 39.7097C23.1708 39.1237 23.5 38.3288 23.5 37.5C23.5 36.6712 23.1708 35.8763 22.5847 35.2903C21.9987 34.7042 21.2038 34.375 20.375 34.375ZM48.5 34.375C47.6712 34.375 46.8763 34.7042 46.2903 35.2903C45.7042 35.8763 45.375 36.6712 45.375 37.5C45.375 38.3288 45.7042 39.1237 46.2903 39.7097C46.8763 40.2958 47.6712 40.625 48.5 40.625C49.3288 40.625 50.1237 40.2958 50.7097 39.7097C51.2958 39.1237 51.625 38.3288 51.625 37.5C51.625 36.6712 51.2958 35.8763 50.7097 35.2903C50.1237 34.7042 49.3288 34.375 48.5 34.375Z" fill="#156495"/>
</g>
<path d="M69.32 40V12H81.44C83.9467 12 86.1067 12.4133 87.92 13.24C89.7333 14.04 91.1333 15.2 92.12 16.72C93.1067 18.24 93.6 20.0533 93.6 22.16C93.6 24.24 93.1067 26.04 92.12 27.56C91.1333 29.08 89.7333 30.2533 87.92 31.08C86.1067 31.88 83.9467 32.28 81.44 32.28H72.92L75.8 29.36V40H69.32ZM75.8 30.08L72.92 27H81.08C83.08 27 84.5733 26.5733 85.56 25.72C86.5467 24.8667 87.04 23.68 87.04 22.16C87.04 20.6133 86.5467 19.4133 85.56 18.56C84.5733 17.7067 83.08 17.28 81.08 17.28H72.92L75.8 14.2V30.08ZM107.987 40.32C105.694 40.32 103.654 39.84 101.867 38.88C100.107 37.92 98.7072 36.6133 97.6672 34.96C96.6539 33.28 96.1472 31.3733 96.1472 29.24C96.1472 27.08 96.6539 25.1733 97.6672 23.52C98.7072 21.84 100.107 20.5333 101.867 19.6C103.654 18.64 105.694 18.16 107.987 18.16C110.254 18.16 112.281 18.64 114.067 19.6C115.854 20.5333 117.254 21.8267 118.267 23.48C119.281 25.1333 119.787 27.0533 119.787 29.24C119.787 31.3733 119.281 33.28 118.267 34.96C117.254 36.6133 115.854 37.92 114.067 38.88C112.281 39.84 110.254 40.32 107.987 40.32ZM107.987 35.2C109.027 35.2 109.961 34.96 110.787 34.48C111.614 34 112.267 33.32 112.747 32.44C113.227 31.5333 113.467 30.4667 113.467 29.24C113.467 27.9867 113.227 26.92 112.747 26.04C112.267 25.16 111.614 24.48 110.787 24C109.961 23.52 109.027 23.28 107.987 23.28C106.947 23.28 106.014 23.52 105.187 24C104.361 24.48 103.694 25.16 103.187 26.04C102.707 26.92 102.467 27.9867 102.467 29.24C102.467 30.4667 102.707 31.5333 103.187 32.44C103.694 33.32 104.361 34 105.187 34.48C106.014 34.96 106.947 35.2 107.987 35.2ZM123.958 40V18.48H129.918V24.56L129.078 22.8C129.718 21.28 130.745 20.1333 132.158 19.36C133.571 18.56 135.291 18.16 137.318 18.16V23.92C137.051 23.8933 136.811 23.88 136.598 23.88C136.385 23.8533 136.158 23.84 135.918 23.84C134.211 23.84 132.825 24.3333 131.758 25.32C130.718 26.28 130.198 27.7867 130.198 29.84V40H123.958ZM150.571 40.32C148.037 40.32 146.064 39.68 144.651 38.4C143.237 37.0933 142.531 35.16 142.531 32.6V13.72H148.771V32.52C148.771 33.4267 149.011 34.1333 149.491 34.64C149.971 35.12 150.624 35.36 151.451 35.36C152.437 35.36 153.277 35.0933 153.971 34.56L155.651 38.96C155.011 39.4133 154.237 39.76 153.331 40C152.451 40.2133 151.531 40.32 150.571 40.32ZM139.211 23.76V18.96H154.131V23.76H139.211ZM169.169 40.32C166.716 40.32 164.556 39.84 162.689 38.88C160.849 37.92 159.423 36.6133 158.409 34.96C157.396 33.28 156.889 31.3733 156.889 29.24C156.889 27.08 157.383 25.1733 158.369 23.52C159.383 21.84 160.756 20.5333 162.489 19.6C164.223 18.64 166.183 18.16 168.369 18.16C170.476 18.16 172.369 18.6133 174.049 19.52C175.756 20.4 177.103 21.68 178.089 23.36C179.076 25.0133 179.569 27 179.569 29.32C179.569 29.56 179.556 29.84 179.529 30.16C179.503 30.4533 179.476 30.7333 179.449 31H161.969V27.36H176.169L173.769 28.44C173.769 27.32 173.543 26.3467 173.089 25.52C172.636 24.6933 172.009 24.0533 171.209 23.6C170.409 23.12 169.476 22.88 168.409 22.88C167.343 22.88 166.396 23.12 165.569 23.6C164.769 24.0533 164.143 24.7067 163.689 25.56C163.236 26.3867 163.009 27.3733 163.009 28.52V29.48C163.009 30.6533 163.263 31.6933 163.769 32.6C164.303 33.48 165.036 34.16 165.969 34.64C166.929 35.0933 168.049 35.32 169.329 35.32C170.476 35.32 171.476 35.1467 172.329 34.8C173.209 34.4533 174.009 33.9333 174.729 33.24L178.049 36.84C177.063 37.96 175.823 38.8267 174.329 39.44C172.836 40.0267 171.116 40.32 169.169 40.32ZM183.724 40V18.48H189.684V24.56L188.844 22.8C189.484 21.28 190.51 20.1333 191.924 19.36C193.337 18.56 195.057 18.16 197.084 18.16V23.92C196.817 23.8933 196.577 23.88 196.364 23.88C196.15 23.8533 195.924 23.84 195.684 23.84C193.977 23.84 192.59 24.3333 191.524 25.32C190.484 26.28 189.964 27.7867 189.964 29.84V40H183.724Z" fill="#156495"/>
<defs>
<clipPath id="clip0_19_66">
<rect width="50" height="50" fill="white" transform="translate(11)"/>
</clipPath>
</defs>
</svg>
