<svg width="74" height="68" viewBox="0 0 74 68" fill="none" xmlns="http://www.w3.org/2000/svg">
<path d="M71 34C71 50.8871 56.0215 65 37 65C17.9785 65 3 50.8871 3 34C3 17.1129 17.9785 3 37 3C56.0215 3 71 17.1129 71 34Z" stroke="#3490CA" stroke-width="6"/>
<path d="M30.99 45V41.85L39.09 34.2C39.73 33.62 40.2 33.1 40.5 32.64C40.8 32.18 41 31.76 41.1 31.38C41.22 31 41.28 30.65 41.28 30.33C41.28 29.49 40.99 28.85 40.41 28.41C39.85 27.95 39.02 27.72 37.92 27.72C37.04 27.72 36.22 27.89 35.46 28.23C34.72 28.57 34.09 29.1 33.57 29.82L30.03 27.54C30.83 26.34 31.95 25.39 33.39 24.69C34.83 23.99 36.49 23.64 38.37 23.64C39.93 23.64 41.29 23.9 42.45 24.42C43.63 24.92 44.54 25.63 45.18 26.55C45.84 27.47 46.17 28.57 46.17 29.85C46.17 30.53 46.08 31.21 45.9 31.89C45.74 32.55 45.4 33.25 44.88 33.99C44.38 34.73 43.64 35.56 42.66 36.48L35.94 42.81L35.01 41.04H46.86V45H30.99Z" fill="black"/>
</svg>
