<svg width="74" height="68" viewBox="0 0 74 68" fill="none" xmlns="http://www.w3.org/2000/svg">
<path d="M71 34C71 50.8871 56.0215 65 37 65C17.9785 65 3 50.8871 3 34C3 17.1129 17.9785 3 37 3C56.0215 3 71 17.1129 71 34Z" stroke="#3490CA" stroke-width="6"/>
<path d="M34.31 45.36C32.85 45.36 31.4 45.17 29.96 44.79C28.54 44.39 27.32 43.83 26.3 43.11L28.22 39.39C29.02 39.97 29.94 40.43 30.98 40.77C32.04 41.11 33.11 41.28 34.19 41.28C35.41 41.28 36.37 41.04 37.07 40.56C37.77 40.08 38.12 39.41 38.12 38.55C38.12 38.01 37.98 37.53 37.7 37.11C37.42 36.69 36.92 36.37 36.2 36.15C35.5 35.93 34.51 35.82 33.23 35.82H27.86L28.94 24H41.75V27.9H30.68L33.2 25.68L32.45 34.11L29.93 31.89H34.37C36.45 31.89 38.12 32.18 39.38 32.76C40.66 33.32 41.59 34.09 42.17 35.07C42.75 36.05 43.04 37.16 43.04 38.4C43.04 39.64 42.73 40.79 42.11 41.85C41.49 42.89 40.53 43.74 39.23 44.4C37.95 45.04 36.31 45.36 34.31 45.36Z" fill="black"/>
</svg>
