<svg width="74" height="68" viewBox="0 0 74 68" fill="none" xmlns="http://www.w3.org/2000/svg">
<path d="M71 34C71 50.8871 56.0215 65 37 65C17.9785 65 3 50.8871 3 34C3 17.1129 17.9785 3 37 3C56.0215 3 71 17.1129 71 34Z" stroke="#3490CA" stroke-width="6"/>
<path d="M36.98 47.36C35.52 47.36 34.07 47.17 32.63 46.79C31.19 46.39 29.97 45.83 28.97 45.11L30.86 41.39C31.66 41.97 32.59 42.43 33.65 42.77C34.71 43.11 35.78 43.28 36.86 43.28C38.08 43.28 39.04 43.04 39.74 42.56C40.44 42.08 40.79 41.42 40.79 40.58C40.79 39.78 40.48 39.15 39.86 38.69C39.24 38.23 38.24 38 36.86 38H34.64V34.79L40.49 28.16L41.03 29.9H30.02V26H44.72V29.15L38.9 35.78L36.44 34.37H37.85C40.43 34.37 42.38 34.95 43.7 36.11C45.02 37.27 45.68 38.76 45.68 40.58C45.68 41.76 45.37 42.87 44.75 43.91C44.13 44.93 43.18 45.76 41.9 46.4C40.62 47.04 38.98 47.36 36.98 47.36Z" fill="black"/>
</svg>
