<svg width="74" height="68" viewBox="0 0 74 68" fill="none" xmlns="http://www.w3.org/2000/svg">
<path d="M71 34C71 50.8871 56.0215 65 37 65C17.9785 65 3 50.8871 3 34C3 17.1129 17.9785 3 37 3C56.0215 3 71 17.1129 71 34Z" stroke="#3490CA" stroke-width="6"/>
<path d="M36.56 45.36C34.64 45.36 32.97 44.96 31.55 44.16C30.15 43.36 29.07 42.19 28.31 40.65C27.55 39.11 27.17 37.21 27.17 34.95C27.17 32.53 27.62 30.48 28.52 28.8C29.44 27.12 30.7 25.84 32.3 24.96C33.92 24.08 35.78 23.64 37.88 23.64C39 23.64 40.07 23.76 41.09 24C42.11 24.24 42.99 24.6 43.73 25.08L41.93 28.65C41.35 28.25 40.73 27.98 40.07 27.84C39.41 27.68 38.72 27.6 38 27.6C36.18 27.6 34.74 28.15 33.68 29.25C32.62 30.35 32.09 31.98 32.09 34.14C32.09 34.5 32.09 34.9 32.09 35.34C32.11 35.78 32.17 36.22 32.27 36.66L30.92 35.4C31.3 34.62 31.79 33.97 32.39 33.45C32.99 32.91 33.7 32.51 34.52 32.25C35.36 31.97 36.28 31.83 37.28 31.83C38.64 31.83 39.86 32.1 40.94 32.64C42.02 33.18 42.88 33.94 43.52 34.92C44.18 35.9 44.51 37.05 44.51 38.37C44.51 39.79 44.15 41.03 43.43 42.09C42.73 43.13 41.78 43.94 40.58 44.52C39.4 45.08 38.06 45.36 36.56 45.36ZM36.29 41.73C36.97 41.73 37.57 41.61 38.09 41.37C38.63 41.11 39.05 40.74 39.35 40.26C39.65 39.78 39.8 39.23 39.8 38.61C39.8 37.65 39.47 36.89 38.81 36.33C38.17 35.75 37.31 35.46 36.23 35.46C35.51 35.46 34.88 35.6 34.34 35.88C33.8 36.14 33.37 36.51 33.05 36.99C32.75 37.45 32.6 37.99 32.6 38.61C32.6 39.21 32.75 39.75 33.05 40.23C33.35 40.69 33.77 41.06 34.31 41.34C34.85 41.6 35.51 41.73 36.29 41.73Z" fill="black"/>
</svg>
