<svg width="35" height="35" viewBox="0 0 35 35" fill="none" xmlns="http://www.w3.org/2000/svg">
<circle cx="17.5" cy="17.5" r="17.5" fill="#3490CA"/>
<path d="M12.8828 10.4113C12.82 10.3306 12.7409 10.2642 12.6505 10.2164C12.5601 10.1687 12.4607 10.1408 12.3587 10.1344C12.2567 10.1281 12.1545 10.1435 12.0589 10.1797C11.9633 10.2159 11.8766 10.272 11.8043 10.3443L10.7058 11.444C10.1926 11.9582 10.0035 12.686 10.2276 13.3246C11.1591 15.9671 12.6725 18.3665 14.656 20.3454C16.635 22.3289 19.0343 23.8423 21.6768 24.7738C22.3153 24.998 23.0431 24.8089 23.5574 24.2957L24.6559 23.1971C24.7283 23.1249 24.7844 23.0381 24.8206 22.9425C24.8568 22.847 24.8722 22.7448 24.8659 22.6428C24.8595 22.5408 24.8316 22.4413 24.7838 22.3509C24.7361 22.2606 24.6697 22.1814 24.589 22.1187L22.1379 20.2126C22.0516 20.1459 21.9514 20.0996 21.8447 20.0771C21.7379 20.0547 21.6275 20.0567 21.5217 20.083L19.1949 20.6642C18.8843 20.7413 18.559 20.7369 18.2506 20.6514C17.9422 20.566 17.661 20.4024 17.4344 20.1765L14.8249 17.566C14.5988 17.3394 14.435 17.0583 14.3494 16.7499C14.2638 16.4415 14.2592 16.1162 14.3362 15.8055L14.9184 13.4786C14.9447 13.3728 14.9467 13.2624 14.9243 13.1557C14.9019 13.0489 14.8555 12.9487 14.7888 12.8624L12.8828 10.4113ZM11.0022 9.54324C11.1881 9.35725 11.4115 9.21295 11.6575 9.11991C11.9034 9.02687 12.1664 8.98722 12.4288 9.0036C12.6913 9.01998 12.9473 9.09201 13.1798 9.21491C13.4123 9.33781 13.616 9.50876 13.7774 9.71642L15.6834 12.1665C16.033 12.6159 16.1562 13.2013 16.0181 13.7538L15.4369 16.0806C15.4071 16.2012 15.4088 16.3273 15.4419 16.447C15.4751 16.5667 15.5385 16.6758 15.626 16.7638L18.2365 19.3743C18.3247 19.4621 18.4339 19.5256 18.5538 19.5587C18.6737 19.5918 18.8001 19.5935 18.9208 19.5634L21.2465 18.9823C21.5192 18.9145 21.8037 18.9094 22.0786 18.9674C22.3535 19.0253 22.6117 19.1448 22.8338 19.3169L25.2839 21.223C26.1647 21.9083 26.2454 23.2098 25.457 23.9971L24.3585 25.0957C23.5722 25.882 22.3971 26.2273 21.3017 25.8416C18.4975 24.8562 15.9517 23.251 13.8538 21.1455C11.7484 19.0479 10.1432 16.5024 9.15775 13.6986C8.77313 12.6042 9.11843 11.4281 9.90466 10.6418L11.0022 9.54324Z" fill="white"/>
</svg>
