<svg width="35" height="35" viewBox="0 0 35 35" fill="none" xmlns="http://www.w3.org/2000/svg">
<circle cx="17.5" cy="17.5" r="17.5" fill="#3490CA"/>
<path d="M26 17.5C26 19.7543 25.1045 21.9163 23.5104 23.5104C21.9163 25.1045 19.7543 26 17.5 26C15.2457 26 13.0837 25.1045 11.4896 23.5104C9.89553 21.9163 9 19.7543 9 17.5C9 15.2457 9.89553 13.0837 11.4896 11.4896C13.0837 9.89553 15.2457 9 17.5 9C19.7543 9 21.9163 9.89553 23.5104 11.4896C25.1045 13.0837 26 15.2457 26 17.5ZM17.8049 15.2751C16.9776 15.6194 15.3251 16.3312 12.8473 17.4107C12.4457 17.5701 12.235 17.7267 12.2151 17.8804C12.1832 18.1386 12.5073 18.2406 12.9483 18.3798L13.1342 18.4382C13.5677 18.5795 14.1521 18.7442 14.4549 18.7506C14.7311 18.7576 15.0385 18.6443 15.3771 18.4106C17.6927 16.848 18.8876 16.0582 18.962 16.0412C19.0151 16.0284 19.0895 16.0136 19.1384 16.0582C19.1873 16.1028 19.183 16.1857 19.1777 16.208C19.1458 16.3451 17.874 17.5266 17.2163 18.1386C17.0112 18.3298 16.8657 18.4648 16.8359 18.4956C16.7704 18.5625 16.7039 18.6284 16.6362 18.6932C16.2324 19.0821 15.9307 19.3732 16.6521 19.8492C16.9996 20.0787 17.2779 20.2667 17.5553 20.4559C17.857 20.662 18.1587 20.8671 18.5498 21.1242C18.6489 21.1894 18.7445 21.2556 18.8366 21.3229C19.1883 21.5736 19.506 21.7989 19.8959 21.7627C20.1233 21.7415 20.3581 21.529 20.4771 20.8915C20.7587 19.3859 21.3123 16.1251 21.4398 14.7811C21.4478 14.6693 21.4431 14.5571 21.4259 14.4464C21.4156 14.3571 21.3725 14.2749 21.3048 14.2158C21.208 14.1493 21.0928 14.1148 20.9754 14.117C20.6567 14.1223 20.1648 14.2934 17.8049 15.2751Z" fill="white"/>
</svg>
