<svg width="35" height="35" viewBox="0 0 35 35" fill="none" xmlns="http://www.w3.org/2000/svg">
<circle cx="17.5" cy="17.5" r="17.5" fill="#3490CA"/>
<path d="M23.5164 11.4714C22.7336 10.6846 21.8013 10.0609 20.7739 9.63659C19.7464 9.21228 18.6444 8.9959 17.532 9.00006C12.8711 9.00006 9.07258 12.7804 9.06831 17.4214C9.06831 18.9078 9.45894 20.3539 10.1964 21.6342L9 26L13.4869 24.8291C14.7277 25.503 16.1186 25.8556 17.532 25.8544H17.5363C22.1983 25.8544 25.9957 22.0741 26 17.4288C26.0009 16.3218 25.7819 15.2255 25.3555 14.203C24.929 13.1806 24.3047 12.2523 23.5164 11.4714ZM17.532 24.4286C16.2717 24.4276 15.0348 24.09 13.9501 23.4511L13.694 23.2981L11.0321 23.9929L11.743 21.4079L11.5765 21.1412C10.8718 20.0259 10.4992 18.7347 10.5017 17.4172C10.5017 13.5645 13.6577 10.4217 17.5363 10.4217C18.4603 10.42 19.3755 10.6005 20.2291 10.9526C21.0827 11.3047 21.8579 11.8216 22.5099 12.4734C23.1641 13.1227 23.6827 13.8945 24.0358 14.7443C24.389 15.594 24.5698 16.505 24.5677 17.4246C24.5634 21.291 21.4074 24.4286 17.532 24.4286ZM21.3903 19.1862C21.1801 19.081 20.1416 18.5721 19.9463 18.4998C19.752 18.4308 19.6101 18.3947 19.4713 18.605C19.3294 18.8143 18.9238 19.2914 18.8021 19.4285C18.6804 19.5698 18.5545 19.5857 18.3432 19.4816C18.1329 19.3753 17.4509 19.1543 16.644 18.435C16.0143 17.8772 15.5927 17.1866 15.4668 16.9773C15.3451 16.7669 15.455 16.6543 15.5607 16.5491C15.6536 16.4556 15.771 16.3026 15.8766 16.1815C15.9834 16.0603 16.0186 15.9711 16.088 15.8308C16.1573 15.6885 16.1242 15.5673 16.0719 15.4622C16.0186 15.357 15.597 14.3189 15.4188 13.9003C15.248 13.487 15.074 13.5444 14.9438 13.539C14.8221 13.5316 14.6802 13.5316 14.5382 13.5316C14.431 13.5343 14.3256 13.559 14.2284 13.6042C14.1313 13.6493 14.0445 13.714 13.9736 13.794C13.7794 14.0044 13.2361 14.5134 13.2361 15.5514C13.2361 16.5895 13.9939 17.5872 14.1006 17.7285C14.2052 17.8698 15.5885 19.9937 17.7113 20.9075C18.213 21.1253 18.6079 21.2538 18.9163 21.3516C19.4233 21.5131 19.8811 21.4886 20.2462 21.4366C20.6517 21.375 21.496 20.9266 21.6742 20.4346C21.8493 19.9416 21.8493 19.5209 21.7959 19.4327C21.7436 19.3435 21.6016 19.2914 21.3903 19.1862Z" fill="white"/>
</svg>
